<svg width="34" height="34" viewBox="0 0 34 34" fill="none" xmlns="http://www.w3.org/2000/svg">
<circle cx="17" cy="17" r="17" fill="#FFB27D"/>
<g clip-path="url(#clip0_7_369)">
<path d="M12.0982 16.1876C12.8143 16.1871 13.5081 15.9382 14.0614 15.4835C14.6146 15.0287 14.9931 14.3963 15.1324 13.6938C15.2716 12.9913 15.163 12.2623 14.825 11.6309C14.487 10.9995 13.9405 10.5048 13.2788 10.2312C12.617 9.95749 11.8808 9.92173 11.1955 10.13C10.5103 10.3382 9.91853 10.7776 9.52093 11.3732C9.12334 11.9689 8.94455 12.6839 9.01503 13.3966C9.08552 14.1093 9.40091 14.7755 9.90748 15.2817C10.195 15.5695 10.5365 15.7977 10.9125 15.9532C11.2884 16.1086 11.6914 16.1883 12.0982 16.1876ZM11.2333 12.226C11.4334 12.026 11.6967 11.9014 11.9783 11.8737C12.2599 11.846 12.5424 11.9168 12.7777 12.074C13.013 12.2312 13.1864 12.4651 13.2686 12.7359C13.3507 13.0067 13.3364 13.2976 13.2281 13.559C13.1198 13.8205 12.9242 14.0363 12.6747 14.1696C12.4251 14.303 12.137 14.3458 11.8595 14.2906C11.582 14.2354 11.3322 14.0856 11.1526 13.8669C10.9731 13.6481 10.875 13.3739 10.875 13.0909C10.8746 12.9303 10.906 12.7711 10.9675 12.6226C11.029 12.4741 11.1193 12.3394 11.2333 12.226ZM20.9019 16.8108C20.1851 16.8108 19.4905 17.0593 18.9364 17.5141C18.3823 17.9688 18.003 18.6016 17.8631 19.3046C17.7233 20.0076 17.8315 20.7373 18.1694 21.3695C18.5073 22.0016 19.0539 22.4971 19.7162 22.7714C20.3784 23.0457 21.1152 23.0819 21.8012 22.8738C22.4871 22.6658 23.0796 22.2263 23.4779 21.6303C23.8761 21.0343 24.0554 20.3187 23.9851 19.6054C23.9148 18.892 23.5994 18.2251 23.0926 17.7183C22.8056 17.4297 22.4642 17.2009 22.0881 17.0451C21.7121 16.8893 21.3089 16.8097 20.9019 16.8108ZM21.7667 20.7739C21.5371 21.0018 21.2264 21.1295 20.9028 21.1289C20.5792 21.1283 20.269 20.9995 20.0402 20.7706C19.8114 20.5418 19.6826 20.2316 19.682 19.908C19.6814 19.5844 19.809 19.2738 20.037 19.0441C20.1504 18.9298 20.2853 18.8391 20.4338 18.777C20.5824 18.715 20.7418 18.6829 20.9028 18.6826C21.0638 18.6823 21.2233 18.7138 21.3721 18.7753C21.5209 18.8368 21.6561 18.927 21.77 19.0409C21.8838 19.1547 21.9741 19.2899 22.0356 19.4388C22.097 19.5876 22.1285 19.7471 22.1282 19.9081C22.1279 20.0691 22.0958 20.2285 22.0338 20.377C21.9718 20.5256 21.881 20.6605 21.7667 20.7739L21.7667 20.7739ZM22.7326 10.2674C22.8197 10.3544 22.8887 10.4578 22.9358 10.5715C22.9829 10.6853 23.0072 10.8072 23.0072 10.9303C23.0072 11.0534 22.9829 11.1753 22.9358 11.2891C22.8887 11.4028 22.8197 11.5061 22.7326 11.5932L11.5933 22.7325C11.4172 22.9072 11.1791 23.0051 10.9311 23.0046C10.6831 23.0041 10.4454 22.9054 10.27 22.73C10.0946 22.5546 9.99591 22.3169 9.99543 22.0689C9.99496 21.8209 10.0928 21.5828 10.2675 21.4067L21.4068 10.2674C21.5826 10.0916 21.8211 9.9928 22.0697 9.9928C22.3183 9.9928 22.5568 10.0916 22.7326 10.2674Z" fill="white"/>
</g>
<defs>
<clipPath id="clip0_7_369">
<rect width="15" height="15" fill="white" transform="translate(9 9)"/>
</clipPath>
</defs>
</svg>
