<svg width="24" height="24" viewBox="0 0 24 24" fill="none" xmlns="http://www.w3.org/2000/svg">
<path d="M18.7194 14.053C18.3042 13.7187 17.7931 13.5259 17.2606 13.5027C16.7281 13.4795 16.2021 13.6271 15.7594 13.924L14.2504 14.93C12.9872 14.641 11.8312 14.0017 10.9149 13.0854C9.99867 12.1692 9.35936 11.0131 9.07039 9.74995L10.0764 8.24095C10.3732 7.79826 10.5208 7.27228 10.4976 6.73979C10.4744 6.20729 10.2816 5.69614 9.94739 5.28095L8.71839 3.74395C8.47043 3.43391 8.15283 3.18673 7.79139 3.02249C7.42995 2.85825 7.03486 2.78159 6.63823 2.79874C6.24159 2.81589 5.85459 2.92636 5.50867 3.12118C5.16276 3.31599 4.86767 3.58966 4.64739 3.91995L3.66139 5.39995C3.19786 6.09391 2.91013 6.89023 2.82302 7.7202C2.73591 8.55017 2.85204 9.38888 3.16139 10.164C4.12935 12.5705 5.57402 14.7564 7.40853 16.5902C9.24304 18.4241 11.4295 19.8679 13.8364 20.835C14.6115 21.1443 15.4502 21.2604 16.2801 21.1733C17.1101 21.0862 17.9064 20.7985 18.6004 20.335L20.0804 19.349C20.4107 19.1287 20.6844 18.8336 20.8792 18.4877C21.074 18.1418 21.1845 17.7548 21.2016 17.3581C21.2188 16.9615 21.1421 16.5664 20.9779 16.205C20.8136 15.8435 20.5664 15.5259 20.2564 15.278L18.7194 14.053ZM19.5254 18.521L18.0454 19.507C17.4863 19.88 16.8448 20.1114 16.1763 20.1811C15.5078 20.2508 14.8324 20.1567 14.2084 19.907C11.9277 18.9897 9.85599 17.6208 8.11776 15.8826C6.37952 14.1444 5.01065 12.0726 4.09339 9.79195C3.84376 9.16793 3.74972 8.49253 3.81941 7.82404C3.8891 7.15556 4.12042 6.51407 4.49339 5.95495L5.47939 4.47495C5.61113 4.27478 5.78872 4.10893 5.99743 3.99118C6.20614 3.87343 6.43994 3.80719 6.67939 3.79795H6.74839C6.97674 3.79722 7.20227 3.84843 7.40791 3.9477C7.61355 4.04697 7.79393 4.1917 7.93539 4.37095L9.16639 5.90595C9.36817 6.15544 9.48464 6.46305 9.49868 6.78361C9.51272 7.10417 9.42359 7.42079 9.24439 7.68695L8.12139 9.37095C8.08477 9.42561 8.05929 9.48696 8.04642 9.55148C8.03355 9.616 8.03354 9.68243 8.04639 9.74695C8.35035 11.2798 9.10247 12.6879 10.2075 13.7929C11.3124 14.8979 12.7206 15.65 14.2534 15.954C14.3179 15.9668 14.3843 15.9668 14.4489 15.9539C14.5134 15.9411 14.5747 15.9156 14.6294 15.879L16.3134 14.756C16.5796 14.5768 16.8962 14.4876 17.2167 14.5017C17.5373 14.5157 17.8449 14.6322 18.0944 14.834L19.6314 16.063C19.8186 16.2127 19.9679 16.4044 20.067 16.6226C20.1662 16.8408 20.2125 17.0794 20.2022 17.3189C20.1919 17.5583 20.1252 17.792 20.0076 18.0009C19.89 18.2097 19.7248 18.3879 19.5254 18.521Z" fill="#ED145B"/>
<path d="M12.7002 7.2251C13.7808 7.22563 14.817 7.65513 15.5811 8.41922C16.3452 9.18332 16.7747 10.2195 16.7752 11.3001C16.7752 11.4327 16.8279 11.5599 16.9216 11.6537C17.0154 11.7474 17.1426 11.8001 17.2752 11.8001C17.4078 11.8001 17.535 11.7474 17.6287 11.6537C17.7225 11.5599 17.7752 11.4327 17.7752 11.3001C17.7747 9.95429 17.2398 8.66375 16.2882 7.71212C15.3365 6.76048 14.046 6.22563 12.7002 6.2251C12.5676 6.2251 12.4404 6.27778 12.3466 6.37154C12.2529 6.46531 12.2002 6.59249 12.2002 6.7251C12.2002 6.85771 12.2529 6.98488 12.3466 7.07865C12.4404 7.17242 12.5676 7.2251 12.7002 7.2251Z" fill="#ED145B"/>
<path d="M12.7002 3.80005C14.6887 3.80217 16.5951 4.59302 18.0012 5.99909C19.4072 7.40515 20.1981 9.31157 20.2002 11.3C20.2002 11.4327 20.2529 11.5598 20.3466 11.6536C20.4404 11.7474 20.5676 11.8 20.7002 11.8C20.8328 11.8 20.96 11.7474 21.0537 11.6536C21.1475 11.5598 21.2002 11.4327 21.2002 11.3C21.1975 9.04652 20.3012 6.88605 18.7077 5.29256C17.1142 3.69908 14.9537 2.8027 12.7002 2.80005C12.5676 2.80005 12.4404 2.85273 12.3466 2.9465C12.2529 3.04026 12.2002 3.16744 12.2002 3.30005C12.2002 3.43266 12.2529 3.55983 12.3466 3.6536C12.4404 3.74737 12.5676 3.80005 12.7002 3.80005Z" fill="#ED145B"/>
</svg>
