<svg width="15" height="19" viewBox="0 0 15 19" fill="none" xmlns="http://www.w3.org/2000/svg">
<path d="M14.225 18.1001H14.125H12.6806H12.5806V18.0001V14.4281C12.58 13.8998 12.3658 13.393 11.9844 13.0189C11.6029 12.6448 11.0853 12.434 10.5449 12.4334C10.5449 12.4334 10.5449 12.4334 10.5448 12.4334M14.225 18.1001L10.5449 12.3334L10.5448 12.4334M14.225 18.1001V18.0001V14.428V14.4278C14.2238 13.4698 13.8353 12.5518 13.1452 11.875C12.4552 11.1983 11.5201 10.8179 10.5451 10.8167H10.5449L4.70506 10.8167L4.70494 10.8167C3.72994 10.8179 2.79483 11.1983 2.10482 11.875C1.41475 12.5518 1.02618 13.4698 1.025 14.4278V14.428V18.0001V18.1001H1.125H2.56944H2.66944V18.0001L2.66944 14.4281L14.225 18.1001ZM10.5448 12.4334H4.70515M10.5448 12.4334H4.70515M4.70515 12.4334L4.70506 12.4334L4.70515 12.4334Z" fill="white" stroke="white" stroke-width="0.2"/>
<path d="M7.62435 9.6H7.62445C8.79924 9.59885 9.92596 9.14065 10.7572 8.32536C11.5886 7.51 12.0565 6.40405 12.0577 5.2501V5.25C12.0577 4.38922 11.7974 3.54792 11.31 2.83253C10.8227 2.11715 10.1301 1.55987 9.32028 1.23087C8.51044 0.901869 7.61942 0.815817 6.75981 0.983515C5.9002 1.15121 5.11033 1.5652 4.4902 2.1734C3.87005 2.78163 3.44749 3.5568 3.27628 4.40099C3.10506 5.2452 3.19295 6.12021 3.52875 6.91531C3.86454 7.71039 4.43304 8.38964 5.16207 8.86739C5.89107 9.34513 6.74795 9.6 7.62435 9.6ZM6.07418 2.97781C6.53287 2.67722 7.07233 2.51667 7.62435 2.51667C8.36463 2.51667 9.07421 2.80511 9.59708 3.31793C10.1199 3.83068 10.4132 4.52571 10.4132 5.25C10.4132 5.79017 10.2499 6.31837 9.94373 6.76781C9.63752 7.21729 9.20207 7.5679 8.69224 7.77501C8.1824 7.98214 7.62128 8.03636 7.07991 7.93074C6.53854 7.82513 6.04153 7.56449 5.65162 7.18208C5.26173 6.79968 4.99643 6.31272 4.88898 5.78288C4.78152 5.25305 4.83665 4.70385 5.04749 4.20464C5.25833 3.7054 5.61552 3.27839 6.07418 2.97781Z" fill="white" stroke="white" stroke-width="0.2"/>
</svg>
