<svg width="29" height="22" viewBox="0 0 29 22" fill="none" xmlns="http://www.w3.org/2000/svg">
<path d="M14.5 11.0005V6.73582C14.5 5.10449 13.7209 3.58278 12.3062 2.45104C9.49534 0.202349 5.00586 0.201383 2.19376 2.45104C0.779077 3.58278 0 5.10449 0 6.73582V13.5594C0 17.7922 3.44366 21.2358 7.67647 21.2358H29V11.0005H14.5ZM7.25 2.47112C10.3071 2.47112 12.7941 4.38426 12.7941 6.73582V11.0005H7.25C4.19295 11.0005 1.70588 9.08738 1.70588 6.73582C1.70588 4.38426 4.19295 2.47112 7.25 2.47112ZM1.70588 13.5594V10.5904C3.05143 11.8983 4.91283 12.6053 6.82347 12.6959V12.7064H23.0294V19.5299H20.4705V16.9711H18.7646V19.5299H16.2058V16.1181H14.4999V19.5299H11.9411V16.9711H10.2352V19.5299H7.67641C4.38429 19.5299 1.70588 16.8516 1.70588 13.5594ZM27.2941 19.5299H24.7353V12.7064H27.2941V19.5299Z" fill="white"/>
<path d="M4.60708 8.56322C6.09597 9.53813 8.40318 9.5391 9.89361 8.56322C10.653 8.06596 11.0886 7.39992 11.0886 6.73583C11.0886 6.07173 10.653 5.40569 9.89361 4.90843C8.40472 3.93351 6.09751 3.93255 4.60708 4.90843C3.84768 5.40569 3.41211 6.07173 3.41211 6.73583C3.41211 7.39992 3.84768 8.06596 4.60708 8.56322ZM7.25034 5.88288C8.51042 5.88288 9.25589 6.47164 9.37377 6.73583C9.25589 7.00001 8.51042 7.58877 7.25034 7.58877C5.99027 7.58877 5.24474 7.00001 5.12692 6.73583C5.24474 6.47164 5.99027 5.88288 7.25034 5.88288Z" fill="white"/>
</svg>
