<svg width="88" height="68" viewBox="0 0 88 68" fill="none" xmlns="http://www.w3.org/2000/svg">
<g clip-path="url(#clip0_6192_2014)">
<path fill-rule="evenodd" clip-rule="evenodd" d="M45.3706 25.0106C45.3706 22.8357 45.1542 20.8784 44.8657 19.5735H42.9903C42.7017 20.8784 42.4854 22.8357 42.4854 25.0106C42.4854 27.2579 42.7017 29.2153 42.9903 30.5927H44.7935C45.2263 29.2878 45.3706 27.2579 45.3706 25.0106Z" fill="#ED1C24"/>
<path fill-rule="evenodd" clip-rule="evenodd" d="M49.4824 8.84435C48.5447 5.94456 46.7414 3.55224 44.9381 1.23241C44.7217 0.869936 44.3611 0.507463 44.0004 0C43.5676 0.507463 43.2791 0.869936 42.9906 1.23241C41.1873 3.62473 39.4562 6.01706 38.4463 8.84435C37.2922 12.3241 38.4463 14.5714 41.9807 15.5864C43.7119 16.0938 43.7119 16.0938 43.7119 17.9062C43.7119 17.9062 43.7119 17.9062 43.7119 17.9787C43.4955 18.1962 43.3512 18.6311 43.1348 19.2111H44.7939C44.6496 18.6311 44.4332 18.1962 44.2889 17.9787C44.2889 17.9787 44.2889 17.9787 44.2889 17.9062C44.2889 16.0938 44.2889 16.0938 46.0201 15.5864C49.4824 14.6439 50.7086 12.3241 49.4824 8.84435Z" fill="#ED1C24"/>
<path fill-rule="evenodd" clip-rule="evenodd" d="M43.207 31.0278C43.4234 31.8253 43.7119 32.2602 44.0005 32.2602C44.289 32.2602 44.5775 31.8253 44.7939 31.0278H43.207Z" fill="#ED1C24"/>
<path fill-rule="evenodd" clip-rule="evenodd" d="M33.4681 23.7058C33.4681 21.821 33.3238 20.2261 33.0353 19.0662H31.4484C31.1599 20.1536 31.0156 21.821 31.0156 23.7058C31.0156 25.5907 31.1599 27.3306 31.4484 28.418H32.9632C33.3238 27.3306 33.4681 25.5907 33.4681 23.7058Z" fill="#F04E37"/>
<path fill-rule="evenodd" clip-rule="evenodd" d="M37.0028 9.93178C36.2094 7.46696 34.6946 5.43711 33.1799 3.40726C32.9635 3.11728 32.6749 2.75481 32.3143 2.39233C31.9536 2.8273 31.7372 3.11728 31.4487 3.40726C29.934 5.43711 28.4192 7.46696 27.6258 9.93178C26.6159 12.9041 27.6258 14.8614 30.6553 15.6589C32.0979 16.0938 32.0979 16.0938 32.0979 17.6162C31.9536 17.7612 31.7372 18.1237 31.6651 18.6311H33.0356C32.8913 18.1237 32.7471 17.7612 32.6028 17.6162C32.6028 16.0938 32.6028 16.0938 34.0454 15.6589C37.0028 14.8614 38.0126 12.9041 37.0028 9.93178Z" fill="#F04E37"/>
<path fill-rule="evenodd" clip-rule="evenodd" d="M31.5928 28.7803C31.8092 29.4327 32.0256 29.7952 32.242 29.7952C32.4583 29.7952 32.7469 29.4327 32.8911 28.7803H31.5928Z" fill="#F04E37"/>
<path fill-rule="evenodd" clip-rule="evenodd" d="M23.2266 22.6183C23.2266 21.0234 23.0823 19.5735 22.8659 18.6311H21.4954C21.279 19.5735 21.1348 21.0234 21.1348 22.6183C21.1348 24.2857 21.279 25.7356 21.4954 26.678H22.7938C23.0823 25.7356 23.2266 24.2857 23.2266 22.6183Z" fill="#F7941D"/>
<path fill-rule="evenodd" clip-rule="evenodd" d="M26.2558 10.8016C25.5345 8.69929 24.2361 6.95942 22.9378 5.21955C22.7214 4.92957 22.505 4.71208 22.2165 4.34961C21.9279 4.71208 21.7116 5.00206 21.4952 5.21955C20.1968 6.95942 18.8984 8.69929 18.1771 10.8016C17.3116 13.3389 18.1771 15.0063 20.7738 15.7313C22.0722 16.0937 22.0722 16.0937 22.0001 17.3986C21.8558 17.5436 21.7116 17.8336 21.6394 18.2686H22.8657C22.7214 17.8336 22.6493 17.5436 22.4329 17.3986C22.4329 16.0937 22.4329 16.0937 23.6591 15.7313C26.2558 15.0063 27.1214 13.3389 26.2558 10.8016Z" fill="#F7941D"/>
<path fill-rule="evenodd" clip-rule="evenodd" d="M21.6396 27.0405C21.7839 27.6205 22.0003 27.9105 22.2167 27.9105C22.4331 27.9105 22.6495 27.548 22.7937 27.0405H21.6396Z" fill="#F7941D"/>
<path fill-rule="evenodd" clip-rule="evenodd" d="M66.794 22.6183C66.794 21.0234 66.6497 19.5735 66.4333 18.6311H65.0628C64.8464 19.5735 64.7021 21.0234 64.7021 22.6183C64.7021 24.2857 64.8464 25.7356 65.0628 26.678H66.3612C66.6497 25.7356 66.794 24.2857 66.794 22.6183Z" fill="#92278F"/>
<path fill-rule="evenodd" clip-rule="evenodd" d="M69.8232 10.8016C69.1019 8.69929 67.8035 6.95942 66.5052 5.21955C66.2888 4.92957 66.0724 4.71208 65.7839 4.34961C65.4953 4.71208 65.2789 5.00206 65.0625 5.21955C63.7642 6.95942 62.4658 8.69929 61.7445 10.8016C60.8789 13.3389 61.7445 15.0063 64.3412 15.7313C65.6396 16.0937 65.6396 16.0937 65.5675 17.3986C65.4232 17.5436 65.2789 17.8336 65.2068 18.2686H66.3609C66.2166 17.8336 66.1445 17.5436 66.0003 17.3986C66.0003 16.0937 66.0002 16.0937 67.2265 15.7313C69.8232 15.0063 70.6888 13.3389 69.8232 10.8016Z" fill="#92278F"/>
<path fill-rule="evenodd" clip-rule="evenodd" d="M65.207 27.0405C65.3513 27.6205 65.5677 27.9105 65.7841 27.9105C66.0005 27.9105 66.2169 27.548 66.3611 27.0405H65.207Z" fill="#92278F"/>
<path fill-rule="evenodd" clip-rule="evenodd" d="M75.4489 21.676C75.4489 20.2986 75.3047 19.0662 75.1604 18.2688H74.0063C73.7899 19.0662 73.7178 20.2986 73.7178 21.676C73.7178 23.0534 73.862 24.3584 74.0063 25.1558H75.1604C75.3047 24.3584 75.4489 23.1259 75.4489 21.676Z" fill="#005BAA"/>
<path fill-rule="evenodd" clip-rule="evenodd" d="M78.0455 11.5992C77.4685 9.78681 76.3144 8.26442 75.2324 6.81453C75.0882 6.59705 74.8718 6.37956 74.5832 6.01709C74.2947 6.30707 74.1504 6.52455 73.9341 6.81453C72.78 8.26442 71.698 9.78681 71.1209 11.5992C70.3996 13.774 71.1209 15.2239 73.357 15.8039C74.439 16.0938 74.439 16.0938 74.439 17.2538C74.2947 17.3988 74.2226 17.6162 74.0783 17.9787H75.0882C75.016 17.6162 74.8718 17.3263 74.7275 17.2538C74.7275 16.0938 74.7275 16.0938 75.8095 15.8039C77.9734 15.1514 78.7668 13.774 78.0455 11.5992Z" fill="#005BAA"/>
<path fill-rule="evenodd" clip-rule="evenodd" d="M74.0781 25.4456C74.2224 25.953 74.3667 26.243 74.583 26.243C74.7994 26.243 74.9437 25.953 75.088 25.4456H74.0781Z" fill="#005BAA"/>
<path fill-rule="evenodd" clip-rule="evenodd" d="M14.3542 21.676C14.3542 20.2986 14.2099 19.0662 14.0657 18.2688H12.9116C12.6952 19.0662 12.623 20.2986 12.623 21.676C12.623 23.0534 12.7673 24.3584 12.9116 25.1558H14.0657C14.2099 24.3584 14.3542 23.1259 14.3542 21.676Z" fill="#8DC63F"/>
<path fill-rule="evenodd" clip-rule="evenodd" d="M16.8787 11.5992C16.3016 9.78681 15.1475 8.26442 14.0656 6.81453C13.8492 6.52455 13.7049 6.30707 13.4164 6.01709C13.2 6.30707 12.9836 6.52455 12.8393 6.81453C11.6852 8.26442 10.6033 9.78681 10.0262 11.5992C9.3049 13.774 10.0262 15.2239 12.2623 15.8039C13.3442 16.0938 13.3442 16.0938 13.3442 17.2538C13.2 17.3988 13.1279 17.6162 12.9836 17.9787H13.9934C13.9213 17.6162 13.777 17.3263 13.6328 17.2538C13.6328 16.0938 13.6328 16.0938 14.7147 15.8039C16.8787 15.1514 17.6 13.774 16.8787 11.5992Z" fill="#8DC63F"/>
<path fill-rule="evenodd" clip-rule="evenodd" d="M12.9111 25.4456C13.0554 25.953 13.1997 26.243 13.4161 26.243C13.6324 26.243 13.7767 25.953 13.921 25.4456H12.9111Z" fill="#8DC63F"/>
<path fill-rule="evenodd" clip-rule="evenodd" d="M56.9114 23.7058C56.9114 21.821 56.7672 20.2261 56.4787 19.0662H54.8918C54.6032 20.1536 54.459 21.821 54.459 23.7058C54.459 25.5907 54.6032 27.3306 54.8918 28.418H56.4065C56.695 27.3306 56.9114 25.5907 56.9114 23.7058Z" fill="#ED145B"/>
<path fill-rule="evenodd" clip-rule="evenodd" d="M60.3739 9.93178C59.5805 7.46696 58.0657 5.43711 56.551 3.40726C56.3346 3.11728 56.046 2.75481 55.6854 2.39233C55.3247 2.8273 55.1083 3.11728 54.8198 3.40726C53.3051 5.43711 51.7903 7.46696 50.9969 9.93178C49.987 12.9041 50.9969 14.8614 54.0264 15.6589C55.469 16.0938 55.469 16.0938 55.469 17.6162C55.3247 17.7612 55.1805 18.1237 55.0362 18.6311H56.4067C56.2624 18.1237 56.1182 17.7612 55.9739 17.6162C55.9739 16.0938 55.9739 16.0938 57.4165 15.6589C60.3739 14.8614 61.3837 12.9041 60.3739 9.93178Z" fill="#ED145B"/>
<path fill-rule="evenodd" clip-rule="evenodd" d="M55.0361 28.7803C55.2525 29.4327 55.4689 29.7952 55.6853 29.7952C55.9017 29.7952 56.1902 29.4327 56.3345 28.7803H55.0361Z" fill="#ED145B"/>
<path d="M37.8692 55.7485H36.7873C36.5709 55.7485 36.4266 55.8935 36.2823 56.111L34.5512 59.7357C34.4791 59.8807 34.4791 59.8807 34.4069 59.8807C34.3348 59.8807 34.3348 59.8082 34.2627 59.7357L32.5315 56.111C32.4594 55.8935 32.243 55.7485 32.0266 55.7485H31.0168C30.8725 55.7485 30.8004 55.821 30.7282 55.8935C30.6561 55.966 30.584 56.111 30.584 56.1835V65.0278C30.584 65.1003 30.584 65.1728 30.6561 65.1728C30.7282 65.1728 30.7282 65.2453 30.8004 65.2453H32.3151C32.3873 65.2453 32.3873 65.2453 32.4594 65.1728C32.4594 65.1003 32.5315 65.0278 32.5315 65.0278V59.7357C32.5315 59.6632 32.5315 59.6632 32.6037 59.6632C32.6037 59.6632 32.6758 59.6632 32.6758 59.7357L33.6856 61.8381C33.7578 61.9831 33.902 62.0556 34.0463 62.0556H34.984C35.1282 62.0556 35.2725 61.9831 35.3446 61.8381L36.3545 59.7357C36.3545 59.6632 36.4266 59.6632 36.4266 59.6632C36.4987 59.6632 36.4987 59.6632 36.4987 59.7357V65.0278C36.4987 65.1003 36.4987 65.1728 36.5709 65.1728C36.5709 65.2453 36.643 65.2453 36.7151 65.2453H38.2299C38.302 65.2453 38.302 65.2453 38.3741 65.1728C38.4463 65.1728 38.4463 65.1003 38.4463 65.0278V56.1835C38.4463 56.0385 38.3741 55.966 38.302 55.8935C38.0856 55.7485 38.0135 55.7485 37.8692 55.7485Z" fill="currentColor"/>
<path d="M45.4424 56.5459C45.1538 56.1835 44.7932 55.966 44.3604 55.821C43.9276 55.676 43.4948 55.6035 43.062 55.6035C42.5571 55.6035 42.1243 55.676 41.7637 55.821C41.3309 55.966 40.9702 56.1835 40.6817 56.5459C40.3932 56.9084 40.1047 57.2709 39.9604 57.7784C39.8161 58.2858 39.6719 58.9383 39.6719 59.6632V61.1856C39.6719 61.9106 39.744 62.563 39.9604 63.0705C40.1047 63.5779 40.3932 64.0129 40.6817 64.3029C40.9702 64.6653 41.3309 64.8828 41.7637 65.0278C42.1965 65.1728 42.6293 65.2453 43.062 65.2453C43.567 65.2453 43.9997 65.1728 44.3604 65.0278C44.7932 64.8828 45.1538 64.6653 45.4424 64.3029C45.7309 63.9404 46.0194 63.5779 46.1637 63.0705C46.3079 62.563 46.4522 61.9106 46.4522 61.1856V59.6632C46.4522 58.9383 46.3801 58.2858 46.1637 57.7784C46.0194 57.3434 45.7309 56.9084 45.4424 56.5459ZM44.5047 61.2581C44.5047 62.0555 44.3604 62.563 44.144 62.9255C43.9276 63.288 43.567 63.4329 43.062 63.4329C42.5571 63.4329 42.1965 63.288 41.9801 62.9255C41.7637 62.563 41.6194 62.0555 41.6194 61.2581V59.7357C41.6194 58.9383 41.7637 58.4308 41.9801 58.0683C42.1965 57.7059 42.5571 57.5609 43.062 57.5609C43.567 57.5609 43.9276 57.7059 44.144 58.0683C44.3604 58.4308 44.5047 58.9383 44.5047 59.7357V61.2581Z" fill="currentColor"/>
<path d="M54.315 55.7485H52.8003C52.7282 55.7485 52.656 55.7485 52.656 55.821C52.656 55.8935 52.656 55.8935 52.656 55.966V59.3733H49.7708V55.966C49.7708 55.8935 49.7708 55.821 49.6987 55.821C49.6265 55.7485 49.6265 55.7485 49.5544 55.7485H48.0396C47.9675 55.7485 47.8954 55.7485 47.8954 55.821C47.8232 55.8935 47.8232 55.8935 47.8232 55.966V64.9554C47.8232 65.0279 47.8232 65.1003 47.8954 65.1003C47.9675 65.1728 47.9675 65.1728 48.0396 65.1728H49.5544C49.6265 65.1728 49.6987 65.1728 49.6987 65.1003C49.7708 65.0279 49.7708 64.9554 49.7708 64.9554V61.2581H52.656V64.9554C52.656 65.0279 52.656 65.1003 52.7282 65.1003C52.8003 65.1728 52.8003 65.1728 52.8724 65.1728H54.3872C54.4593 65.1728 54.5314 65.1728 54.5314 65.1003C54.6036 65.0279 54.6036 64.9554 54.6036 64.9554V55.966C54.6036 55.8935 54.6036 55.821 54.5314 55.821C54.4593 55.7485 54.3872 55.7485 54.315 55.7485Z" fill="currentColor"/>
<path d="M61.5282 55.7485H55.9019C55.8298 55.7485 55.7577 55.7485 55.7577 55.821C55.6856 55.8935 55.6855 55.8935 55.6855 55.966V57.2709C55.6855 57.3434 55.6856 57.4159 55.7577 57.4159C55.8298 57.4884 55.8298 57.4884 55.9019 57.4884H57.7774V64.8829C57.7774 64.9554 57.7774 65.0278 57.8495 65.0278C57.9216 65.1003 57.9216 65.1003 57.9937 65.1003H59.5085C59.5806 65.1003 59.6528 65.1003 59.6528 65.0278C59.7249 64.9554 59.7249 64.8829 59.7249 64.8829V57.5609H61.6003C61.6724 57.5609 61.7446 57.5609 61.7446 57.4884C61.8167 57.4159 61.8167 57.4159 61.8167 57.3434V56.0385C61.8167 55.966 61.8167 55.8935 61.7446 55.8935C61.6724 55.7485 61.6003 55.7485 61.5282 55.7485Z" fill="currentColor"/>
<path d="M68.0919 59.9532C67.8034 59.7357 67.3706 59.5907 66.9378 59.5183C66.505 59.4458 66.0722 59.3733 65.5673 59.3733C65.423 59.3733 65.2788 59.3733 65.2066 59.3733C65.0624 59.3733 64.9181 59.3733 64.846 59.3733V55.966C64.846 55.8935 64.846 55.821 64.7739 55.821C64.7017 55.7485 64.7017 55.7485 64.6296 55.7485H63.1148C63.0427 55.7485 62.9706 55.7485 62.9706 55.821C62.8984 55.8935 62.8984 55.966 62.8984 55.966V64.3029C62.8984 64.5929 62.9706 64.8104 63.0427 64.8829C63.1148 65.0279 63.3312 65.1003 63.5476 65.1003C63.6919 65.1003 63.764 65.1728 63.9804 65.1728C64.1247 65.1728 64.3411 65.1728 64.4853 65.2453C64.7017 65.2453 64.846 65.2453 65.0624 65.2453C65.2788 65.2453 65.423 65.2453 65.6394 65.2453C66.1443 65.2453 66.5771 65.1728 67.0099 65.1003C67.4427 65.0279 67.8034 64.8829 68.164 64.6654C68.4525 64.4479 68.7411 64.1579 68.9575 63.7229C69.1738 63.3605 69.246 62.853 69.246 62.2731V62.2006C69.246 61.6206 69.1738 61.1131 68.9575 60.7507C68.6689 60.4607 68.4525 60.1707 68.0919 59.9532ZM67.2984 62.3455C67.2984 62.563 67.2984 62.708 67.2263 62.853C67.1542 62.998 67.082 63.143 66.9378 63.2155C66.7935 63.288 66.6493 63.3605 66.3607 63.433C66.1443 63.5055 65.8558 63.5055 65.4952 63.5055C65.3509 63.5055 65.2788 63.5055 65.2066 63.5055C65.1345 63.5055 65.0624 63.5055 65.0624 63.5055C64.9902 63.5055 64.9902 63.5055 64.9181 63.5055C64.9181 63.5055 64.846 63.5055 64.7739 63.5055V61.1856C64.846 61.1856 64.846 61.1856 64.9181 61.1856C64.9181 61.1856 64.9902 61.1856 65.0624 61.1856C65.1345 61.1856 65.1345 61.1856 65.2066 61.1856C65.2788 61.1856 65.3509 61.1856 65.4952 61.1856C65.8558 61.1856 66.1443 61.1856 66.3607 61.2581C66.5771 61.3306 66.7935 61.3306 66.9378 61.4756C67.082 61.5481 67.1542 61.6931 67.2263 61.8381C67.2984 61.9831 67.2984 62.1281 67.2984 62.3455Z" fill="currentColor"/>
<path d="M71.6979 55.7485H70.1832C70.0389 55.7485 69.9668 55.821 69.9668 55.966V64.9554C69.9668 65.0279 69.9668 65.1003 70.0389 65.1003C70.1111 65.1728 70.1111 65.1728 70.1832 65.1728H71.6979C71.7701 65.1728 71.8422 65.1728 71.8422 65.1003C71.9143 65.0279 71.9143 64.9554 71.9143 64.9554V55.966C71.9143 55.821 71.8422 55.7485 71.6979 55.7485Z" fill="currentColor"/>
<path d="M26.6166 55.6035C24.4526 55.6035 23.6592 56.7634 23.6592 60.4607C23.6592 64.1579 24.4526 65.3178 26.7608 65.3178C27.4821 65.3178 28.2756 65.2453 28.9969 65.0278C29.069 65.0278 29.069 64.8828 29.069 64.8103L28.8526 63.288C28.8526 63.2155 28.7805 63.143 28.7084 63.2155C28.2034 63.4329 27.4821 63.5779 26.7608 63.5779C25.6067 63.5779 25.4625 63.143 25.4625 60.9681H29.2133C29.2854 60.9681 29.3575 60.8956 29.3575 60.7506C29.3575 56.546 28.7084 55.6035 26.6166 55.6035ZM25.4625 59.3007C25.5346 57.6334 25.6067 57.2709 26.5444 57.2709C27.4821 57.2709 27.5543 57.5609 27.6264 59.3007H25.4625Z" fill="currentColor"/>
<path d="M19.1865 55.6035C18.6815 55.6035 18.1766 55.676 17.6717 55.7485C17.1668 55.821 16.734 55.8935 16.3734 56.0385C16.157 56.111 16.0848 56.1835 16.0848 56.1835C16.0848 56.256 16.0127 56.3285 16.0127 56.401V67.7826C16.0127 67.8551 16.0127 67.9276 16.0848 67.9276C16.157 68.0001 16.157 68.0001 16.2291 68.0001H17.816C17.816 68.0001 17.8881 68.0001 17.8881 67.9276C17.9602 67.8551 17.9602 67.8551 17.9602 67.7826V64.8103H18.1045C18.3209 64.8103 18.4652 64.8828 18.6815 64.8828C18.8979 64.8828 19.0422 64.8828 19.1865 64.8828C20.2684 64.8828 21.0619 64.5204 21.6389 63.7954C22.1438 63.0705 22.4324 62.0555 22.4324 60.8231V59.5182C22.4324 58.2133 22.1438 57.1984 21.5668 56.5459C21.0619 55.8935 20.2684 55.6035 19.1865 55.6035ZM20.4848 60.8956C20.4848 61.1856 20.4848 61.4756 20.4127 61.6931C20.3406 61.9106 20.3406 62.2005 20.1963 62.3455C20.1242 62.563 19.9799 62.708 19.8356 62.7805C19.6914 62.9255 19.475 62.9255 19.1865 62.9255C19.0422 62.9255 18.8258 62.9255 18.6094 62.9255C18.393 62.9255 18.2488 62.853 18.0324 62.853H17.9602V57.6334H18.0324C18.1766 57.6334 18.3209 57.5609 18.5373 57.5609C18.7537 57.5609 18.9701 57.5609 19.1865 57.5609C19.475 57.5609 19.6914 57.6334 19.8356 57.7059C19.9799 57.7784 20.1242 57.9958 20.1963 58.1408C20.2684 58.3583 20.3406 58.5758 20.4127 58.7933C20.4127 59.0108 20.4848 59.3007 20.4848 59.5907V60.8956Z" fill="currentColor"/>
<path d="M7.42951 44.4394L11.1082 37.4074C11.1082 37.3349 11.1803 37.3349 11.1803 37.2624C11.1803 37.1899 11.1803 37.1174 11.1082 37.1174C11.0361 37.0449 10.9639 37.0449 10.8918 37.0449H8.22295C8.15082 37.0449 8.00656 37.1174 7.93443 37.1899C7.8623 37.2624 7.79016 37.3349 7.71803 37.4799L5.77049 41.3946L3.60656 37.4074C3.53443 37.3349 3.4623 37.2624 3.39016 37.1174C3.31803 37.0449 3.2459 36.9724 3.17377 36.9724H0.288525C0.216393 36.9724 0.144262 36.9724 0.0721311 37.0449C0 37.1899 0 37.1899 0 37.2624C0 37.2624 0 37.3349 0 37.4074L3.82295 44.2219L0.0721311 51.3989C0.0721311 51.4713 0.0721311 51.4713 0.0721311 51.5438C0.0721311 51.6888 0.144262 51.8338 0.360656 51.8338H3.02951C3.10164 51.8338 3.17377 51.8338 3.2459 51.6888C3.31803 51.6163 3.39016 51.5438 3.4623 51.3989L5.5541 47.2667L7.8623 51.4713C7.93443 51.5438 8.00656 51.6888 8.07869 51.6888C8.15082 51.7613 8.22295 51.7613 8.36721 51.7613H11.1803C11.3246 51.7613 11.3967 51.6888 11.3967 51.5438C11.3967 51.4713 11.3967 51.3989 11.3246 51.3264L7.42951 44.4394Z" fill="currentColor"/>
<path d="M20.9176 38.2773C20.4127 37.7698 19.9078 37.4074 19.2586 37.1899C18.6094 36.9724 17.9602 36.8274 17.1668 36.8274C16.4455 36.8274 15.7242 36.9724 15.075 37.1899C14.4258 37.4074 13.8488 37.7698 13.416 38.2773C12.9111 38.7847 12.5504 39.4372 12.2619 40.2346C11.9734 41.0321 11.8291 42.047 11.8291 43.2069V45.5992C11.8291 46.7592 11.9734 47.7016 12.2619 48.5715C12.5504 49.369 12.9111 50.0214 13.416 50.5289C13.9209 51.0363 14.4258 51.3988 15.075 51.6163C15.7242 51.8338 16.3734 51.9788 17.1668 51.9788C17.8881 51.9788 18.6094 51.8338 19.2586 51.6163C19.9078 51.3988 20.4848 51.0363 20.9176 50.5289C21.4225 50.0214 21.7832 49.369 22.0717 48.5715C22.3603 47.7741 22.5045 46.7592 22.5045 45.5992V43.2069C22.5045 42.047 22.3603 41.1046 22.0717 40.2346C21.7111 39.5097 21.3504 38.7847 20.9176 38.2773ZM19.4029 45.5992C19.4029 46.8317 19.1865 47.7016 18.8258 48.2091C18.4652 48.7165 17.8881 49.0065 17.1668 49.0065C16.4455 49.0065 15.8684 48.7165 15.5078 48.2091C15.1471 47.7016 15.0029 46.8317 15.0029 45.5992V43.2069C15.0029 41.9745 15.1471 41.1046 15.5078 40.5971C15.8684 40.0897 16.4455 39.7997 17.1668 39.7997C17.8881 39.7997 18.4652 40.0897 18.8258 40.5971C19.1865 41.1046 19.4029 41.9745 19.4029 43.2069V45.5992Z" fill="currentColor"/>
<path d="M44.9381 38.2773C44.4332 37.7698 43.9283 37.4074 43.2791 37.1899C42.6299 36.9724 41.9808 36.8274 41.1873 36.8274C40.3939 36.8274 39.7447 36.9724 39.0955 37.1899C38.4463 37.4074 37.8693 37.7698 37.4365 38.2773C36.9316 38.7847 36.5709 39.4372 36.2824 40.2346C35.9939 41.0321 35.8496 42.047 35.8496 43.2069V45.5992C35.8496 46.7592 35.9939 47.7016 36.2824 48.5715C36.5709 49.369 36.9316 50.0214 37.4365 50.5289C37.9414 51.0363 38.4463 51.3988 39.0955 51.6163C39.7447 51.8338 40.3939 51.9788 41.1873 51.9788C41.9808 51.9788 42.6299 51.8338 43.2791 51.6163C43.9283 51.3988 44.5053 51.0363 44.9381 50.5289C45.443 50.0214 45.8037 49.369 46.0922 48.5715C46.3808 47.7741 46.525 46.7592 46.525 45.5992V43.2069C46.525 42.047 46.3808 41.1046 46.0922 40.2346C45.8037 39.5097 45.443 38.7847 44.9381 38.2773ZM43.4234 45.5992C43.4234 46.8317 43.207 47.7016 42.8463 48.2091C42.4857 48.7165 41.9086 49.0065 41.1873 49.0065C40.466 49.0065 39.889 48.7165 39.5283 48.2091C39.1676 47.7016 39.0234 46.8317 39.0234 45.5992V43.2069C39.0234 41.9745 39.1676 41.1046 39.5283 40.5971C39.889 40.0897 40.466 39.7997 41.1873 39.7997C41.9086 39.7997 42.4857 40.0897 42.8463 40.5971C43.207 41.1046 43.4234 41.9745 43.4234 43.2069V45.5992Z" fill="currentColor"/>
<path d="M63.6198 49.369C63.6919 48.8615 63.764 48.3541 63.764 47.7741V37.4074C63.764 37.3349 63.764 37.1899 63.6919 37.1174C63.6198 37.0449 63.5476 36.9724 63.4755 36.9724H61.1673C61.0952 36.9724 61.023 37.0449 60.9509 37.1174C60.8788 37.1899 60.8788 37.2624 60.8788 37.4074V47.8466C60.8788 47.9916 60.8788 48.1366 60.8788 48.2816C60.8788 48.4266 60.8788 48.4991 60.8066 48.6441C60.7345 48.7165 60.6624 48.789 60.5903 48.8615C60.5181 48.934 60.3017 48.934 60.1575 48.934H57.9935V37.4074C57.9935 37.3349 57.9935 37.1899 57.9214 37.1174C57.8493 37.0449 57.7771 36.9724 57.705 36.9724H55.3968C55.3247 36.9724 55.2525 37.0449 55.1804 37.1174C55.1083 37.1899 55.1083 37.2624 55.1083 37.4074V48.8615H52.9444C52.728 48.8615 52.5837 48.8615 52.5116 48.789C52.4394 48.7166 52.3673 48.6441 52.2952 48.5716C52.223 48.4991 52.223 48.3541 52.223 48.2091C52.223 48.0641 52.223 47.9191 52.223 47.7741V37.4074C52.223 37.3349 52.223 37.1899 52.1509 37.1174C52.0788 37.0449 52.0066 36.9724 51.9345 36.9724H49.0493C48.9771 36.9724 48.905 37.0449 48.8329 37.1174C48.7607 37.1899 48.7607 37.2624 48.7607 37.4074V47.8466C48.7607 48.4266 48.8329 48.934 48.905 49.4415C48.9771 49.949 49.1935 50.3839 49.4821 50.6739C49.7706 51.0364 50.1312 51.3264 50.6362 51.5438C51.1411 51.7613 51.7181 51.8338 52.5116 51.8338H60.1575C60.9509 51.8338 61.528 51.7613 62.0329 51.5438C62.5378 51.3264 62.8984 51.0364 63.187 50.6739C63.3312 50.3114 63.5476 49.8765 63.6198 49.369Z" fill="currentColor"/>
<path d="M76.0982 37.0449H74.2949C74.1507 37.0449 74.0064 37.1174 73.8621 37.1899C73.79 37.2624 73.6457 37.4799 73.5736 37.6249L69.3179 45.8168C69.2457 45.8893 69.2457 45.9618 69.1736 45.9618C69.1015 45.9618 69.1015 45.8893 69.1015 45.8168V37.4074C69.1015 37.3349 69.0293 37.1899 69.0293 37.1174C68.9572 37.0449 68.8851 36.9724 68.8129 36.9724H66.7211C66.649 36.9724 66.5769 37.0449 66.5047 37.1174C66.4326 37.1899 66.4326 37.2624 66.4326 37.4074V51.0364C66.4326 51.2539 66.5048 51.3988 66.649 51.5438C66.7933 51.6888 66.9375 51.7613 67.1539 51.7613H68.8851C69.1015 51.7613 69.2457 51.7613 69.39 51.6163C69.5343 51.5438 69.6785 51.3989 69.8228 51.1089L73.8621 43.2794C73.9343 43.207 74.0064 43.1345 74.0064 43.1345C74.0785 43.1345 74.0785 43.207 74.0785 43.2794V51.3264C74.0785 51.3989 74.0785 51.5438 74.1507 51.6163C74.2228 51.6888 74.2949 51.7613 74.367 51.7613H76.4588C76.531 51.7613 76.6031 51.6888 76.6752 51.6163C76.7474 51.5438 76.7474 51.4713 76.7474 51.3264V37.7699C76.7474 37.5524 76.6752 37.4074 76.531 37.2624C76.4588 37.1174 76.3146 37.0449 76.0982 37.0449Z" fill="currentColor"/>
<path d="M83.7445 37.0449C80.4986 37.0449 79.2002 38.7848 79.2002 44.3669C79.2002 50.0215 80.3543 51.7613 83.8887 51.7613C85.0428 51.7613 86.269 51.6164 87.351 51.3264C87.4231 51.3264 87.4953 51.1089 87.4231 50.9639L87.0625 48.6441C87.0625 48.4991 86.9182 48.4266 86.8461 48.4991C86.1248 48.8616 84.8986 49.0065 83.8887 49.0065C82.1576 49.0065 81.9412 48.3541 81.9412 45.0918H87.6395C87.7117 45.0918 87.9281 44.9468 87.9281 44.7294C88.0002 38.4948 86.9904 37.0449 83.7445 37.0449ZM82.0854 42.6995C82.1576 40.0897 82.3018 39.6547 83.7445 39.6547C85.1871 39.6547 85.3313 40.1622 85.3313 42.6995H82.0854Z" fill="currentColor"/>
<path d="M24.3082 54.5886H26.9049C26.977 54.5886 26.977 54.5886 27.0492 54.5161C27.1213 54.4436 27.1213 54.3711 27.1213 54.2261V52.7762V51.6888H27.3377C27.6262 51.7613 27.9147 51.7613 28.2754 51.8338C28.5639 51.8338 28.8525 51.9063 29.0688 51.9063C30.8 51.9063 32.0984 51.3263 32.9639 50.1664C33.8295 49.0065 34.2623 47.4116 34.2623 45.3818V43.3519C34.2623 41.2496 33.8295 39.6547 32.8918 38.4948C32.0262 37.4073 30.7279 36.8274 29.0688 36.8274C28.2754 36.8274 27.4098 36.8999 26.6885 37.0449C25.8951 37.1899 25.1738 37.3349 24.5967 37.5523C24.2361 37.6248 24.1639 37.7698 24.1639 37.7698C24.0918 37.8423 24.0918 37.9873 24.0918 38.1323V51.5438V52.8487V54.2986C24.0918 54.3711 24.0918 54.4436 24.1639 54.5161C24.1639 54.5886 24.2361 54.5886 24.3082 54.5886ZM27.1213 40.1621H27.2656C27.482 40.0897 27.7705 40.0897 28.059 40.0897C28.3475 40.0897 28.7082 40.0172 29.0688 40.0172C29.5016 40.0172 29.8623 40.0897 30.0787 40.3071C30.3672 40.4521 30.5836 40.7421 30.7279 41.0321C30.8721 41.3221 31.0164 41.6845 31.0164 42.047C31.0885 42.4095 31.0885 42.8444 31.0885 43.3519V45.3818C31.0885 45.8167 31.0885 46.2517 31.0164 46.6867C30.9443 47.1216 30.8721 47.4841 30.7279 47.7741C30.5836 48.0641 30.3672 48.354 30.0787 48.499C29.7902 48.7165 29.4295 48.789 29.0688 48.789C28.7803 48.789 28.4918 48.789 28.2033 48.7165C27.8426 48.7165 27.5541 48.644 27.3377 48.644H27.1934V40.1621H27.1213Z" fill="currentColor"/>
</g>
<defs>
<clipPath id="clip0_6192_2014">
<rect width="88" height="68"/>
</clipPath>
</defs>
</svg>
