<svg width="566" height="300" viewBox="0 0 566 300" fill="none" xmlns="http://www.w3.org/2000/svg">
<path d="M135.6 247C131.6 247 128.2 245.5 125.4 242.5C122.6 239.5 121.2 235.9 121.2 231.7V193.9H21.3C16.7 193.9 13.1 192.5 10.5 189.7C7.9 186.9 6.4 183.7 6 180.1C5.8 176.3 6.8 172.9 9 169.9L123.9 19.3C125.5 17.3 127.3 15.7 129.3 14.5C131.5 13.3 133.9 12.7 136.5 12.7C140.7 12.7 144.1 14.2 146.7 17.2C149.3 20.2 150.6 23.9 150.6 28.3V166.3H168.6C172.8 166.3 176.4 167.3 179.4 169.3C182.4 171.3 183.9 174.9 183.9 180.1C183.9 183.9 182.4 187.2 179.4 190C176.4 192.6 172.8 193.9 168.6 193.9H150.6V231.7C150.6 235.9 149.2 239.5 146.4 242.5C143.6 245.5 140 247 135.6 247ZM39.3 174.7L31.2 166.3H121.2V42.7L130.5 54.7L39.3 174.7ZM282.696 247C267.496 247 254.496 242.4 243.696 233.2C233.096 223.8 224.996 210.4 219.396 193C213.796 175.4 210.996 154.3 210.996 129.7C210.996 105.1 213.796 84.1 219.396 66.7C224.996 49.1 233.096 35.7 243.696 26.5C254.496 17.1 267.496 12.4 282.696 12.4C297.896 12.4 310.796 17.2 321.396 26.8C332.196 36.2 340.396 49.7 345.996 67.3C351.596 84.7 354.396 105.5 354.396 129.7C354.396 153.9 351.596 174.8 345.996 192.4C340.396 209.8 332.196 223.3 321.396 232.9C310.796 242.3 297.896 247 282.696 247ZM282.696 215.8C291.896 215.8 299.496 212.1 305.496 204.7C311.496 197.1 315.996 186.8 318.996 173.8C321.996 160.8 323.496 146.1 323.496 129.7C323.496 113.3 321.996 98.6 318.996 85.6C315.996 72.6 311.496 62.3 305.496 54.7C299.496 47.1 291.896 43.3 282.696 43.3C273.496 43.3 265.896 47.1 259.896 54.7C253.896 62.1 249.396 72.3 246.396 85.3C243.396 98.3 241.896 113.1 241.896 129.7C241.896 146.3 243.396 161.1 246.396 174.1C249.396 187.1 253.896 197.3 259.896 204.7C266.096 212.1 273.696 215.8 282.696 215.8ZM505.034 247C501.034 247 497.634 245.5 494.834 242.5C492.034 239.5 490.634 235.9 490.634 231.7V193.9H390.734C386.134 193.9 382.534 192.5 379.934 189.7C377.334 186.9 375.834 183.7 375.434 180.1C375.234 176.3 376.234 172.9 378.434 169.9L493.334 19.3C494.934 17.3 496.734 15.7 498.734 14.5C500.934 13.3 503.334 12.7 505.934 12.7C510.134 12.7 513.534 14.2 516.134 17.2C518.734 20.2 520.034 23.9 520.034 28.3V166.3H538.034C542.234 166.3 545.834 167.3 548.834 169.3C551.834 171.3 553.334 174.9 553.334 180.1C553.334 183.9 551.834 187.2 548.834 190C545.834 192.6 542.234 193.9 538.034 193.9H520.034V231.7C520.034 235.9 518.634 239.5 515.834 242.5C513.034 245.5 509.434 247 505.034 247ZM408.734 174.7L400.634 166.3H490.634V42.7L499.934 54.7L408.734 174.7Z" fill="url(#paint0_linear_442_2379)"/>
<path d="M129.625 246C125.625 246 122.225 244.5 119.425 241.5C116.625 238.5 115.225 234.9 115.225 230.7V192.9H15.325C10.725 192.9 7.125 191.5 4.525 188.7C1.925 185.9 0.425 182.7 0.025 179.1C-0.175 175.3 0.825 171.9 3.025 168.9L117.925 18.3C119.525 16.3 121.325 14.7 123.325 13.5C125.525 12.3 127.925 11.7 130.525 11.7C134.725 11.7 138.125 13.2 140.725 16.2C143.325 19.2 144.625 22.9 144.625 27.3V165.3H162.625C166.825 165.3 170.425 166.3 173.425 168.3C176.425 170.3 177.925 173.9 177.925 179.1C177.925 182.9 176.425 186.2 173.425 189C170.425 191.6 166.825 192.9 162.625 192.9H144.625V230.7C144.625 234.9 143.225 238.5 140.425 241.5C137.625 244.5 134.025 246 129.625 246ZM33.325 173.7L25.225 165.3H115.225V41.7L124.525 53.7L33.325 173.7Z" fill="#E4E9FF"/>
<path d="M276.721 246C261.521 246 248.521 241.4 237.721 232.2C227.121 222.8 219.021 209.4 213.421 192C207.821 174.4 205.021 153.3 205.021 128.7C205.021 104.1 207.821 83.1 213.421 65.7C219.021 48.1 227.121 34.7 237.721 25.5C248.521 16.1 261.521 11.4 276.721 11.4C291.921 11.4 304.821 16.2 315.421 25.8C326.221 35.2 334.421 48.7 340.021 66.3C345.621 83.7 348.421 104.5 348.421 128.7C348.421 152.9 345.621 173.8 340.021 191.4C334.421 208.8 326.221 222.3 315.421 231.9C304.821 241.3 291.921 246 276.721 246ZM276.721 214.8C285.921 214.8 293.521 211.1 299.521 203.7C305.521 196.1 310.021 185.8 313.021 172.8C316.021 159.8 317.521 145.1 317.521 128.7C317.521 112.3 316.021 97.6 313.021 84.6C310.021 71.6 305.521 61.3 299.521 53.7C293.521 46.1 285.921 42.3 276.721 42.3C267.521 42.3 259.921 46.1 253.921 53.7C247.921 61.1 243.421 71.3 240.421 84.3C237.421 97.3 235.921 112.1 235.921 128.7C235.921 145.3 237.421 160.1 240.421 173.1C243.421 186.1 247.921 196.3 253.921 203.7C260.121 211.1 267.721 214.8 276.721 214.8Z" fill="#E4E9FF"/>
<path d="M499.059 246C495.059 246 491.659 244.5 488.859 241.5C486.059 238.5 484.659 234.9 484.659 230.7V192.9H384.759C380.159 192.9 376.559 191.5 373.959 188.7C371.359 185.9 369.859 182.7 369.459 179.1C369.259 175.3 370.259 171.9 372.459 168.9L487.359 18.3C488.959 16.3 490.759 14.7 492.759 13.5C494.959 12.3 497.359 11.7 499.959 11.7C504.159 11.7 507.559 13.2 510.159 16.2C512.759 19.2 514.059 22.9 514.059 27.3V165.3H532.059C536.259 165.3 539.859 166.3 542.859 168.3C545.859 170.3 547.359 173.9 547.359 179.1C547.359 182.9 545.859 186.2 542.859 189C539.859 191.6 536.259 192.9 532.059 192.9H514.059V230.7C514.059 234.9 512.659 238.5 509.859 241.5C507.059 244.5 503.459 246 499.059 246ZM402.759 173.7L394.659 165.3H484.659V41.7L493.959 53.7L402.759 173.7Z" fill="#E4E9FF"/>
<mask id="mask0_442_2379" style="mask-type:alpha" maskUnits="userSpaceOnUse" x="0" y="11" width="548" height="235">
<path d="M129.65 245.6C125.65 245.6 122.25 244.1 119.45 241.1C116.65 238.1 115.25 234.5 115.25 230.3V192.5H15.3504C10.7504 192.5 7.15039 191.1 4.55039 188.3C1.95039 185.5 0.450391 182.3 0.0503906 178.7C-0.149609 174.9 0.85039 171.5 3.05039 168.5L117.95 17.9C119.55 15.9 121.35 14.3 123.35 13.1C125.55 11.9 127.95 11.3 130.55 11.3C134.75 11.3 138.15 12.8 140.75 15.8C143.35 18.8 144.65 22.5 144.65 26.9V164.9H162.65C166.85 164.9 170.45 165.9 173.45 167.9C176.45 169.9 177.95 173.5 177.95 178.7C177.95 182.5 176.45 185.8 173.45 188.6C170.45 191.2 166.85 192.5 162.65 192.5H144.65V230.3C144.65 234.5 143.25 238.1 140.45 241.1C137.65 244.1 134.05 245.6 129.65 245.6ZM33.3504 173.3L25.2504 164.9H115.25V41.3L124.55 53.3L33.3504 173.3Z" fill="#E4E9FF"/>
<path d="M276.746 245.6C261.546 245.6 248.546 241 237.746 231.8C227.146 222.4 219.046 209 213.446 191.6C207.846 174 205.046 152.9 205.046 128.3C205.046 103.7 207.846 82.7 213.446 65.3C219.046 47.7 227.146 34.3 237.746 25.1C248.546 15.7 261.546 11 276.746 11C291.947 11 304.846 15.8 315.446 25.4C326.246 34.8 334.446 48.3 340.046 65.9C345.646 83.3 348.446 104.1 348.446 128.3C348.446 152.5 345.646 173.4 340.046 191C334.446 208.4 326.246 221.9 315.446 231.5C304.846 240.9 291.947 245.6 276.746 245.6ZM276.746 214.4C285.947 214.4 293.546 210.7 299.546 203.3C305.546 195.7 310.046 185.4 313.046 172.4C316.046 159.4 317.546 144.7 317.546 128.3C317.546 111.9 316.046 97.2 313.046 84.2C310.046 71.2 305.546 60.9 299.546 53.3C293.546 45.7 285.947 41.9 276.746 41.9C267.546 41.9 259.946 45.7 253.946 53.3C247.946 60.7 243.446 70.9 240.446 83.9C237.446 96.9 235.946 111.7 235.946 128.3C235.946 144.9 237.446 159.7 240.446 172.7C243.446 185.7 247.946 195.9 253.946 203.3C260.146 210.7 267.746 214.4 276.746 214.4Z" fill="#E4E9FF"/>
<path d="M499.084 245.6C495.084 245.6 491.684 244.1 488.884 241.1C486.084 238.1 484.684 234.5 484.684 230.3V192.5H384.784C380.184 192.5 376.584 191.1 373.984 188.3C371.384 185.5 369.884 182.3 369.484 178.7C369.284 174.9 370.284 171.5 372.484 168.5L487.384 17.9C488.984 15.9 490.784 14.3 492.784 13.1C494.984 11.9 497.384 11.3 499.984 11.3C504.184 11.3 507.584 12.8 510.184 15.8C512.784 18.8 514.084 22.5 514.084 26.9V164.9H532.084C536.284 164.9 539.884 165.9 542.884 167.9C545.884 169.9 547.384 173.5 547.384 178.7C547.384 182.5 545.884 185.8 542.884 188.6C539.884 191.2 536.284 192.5 532.084 192.5H514.084V230.3C514.084 234.5 512.684 238.1 509.884 241.1C507.084 244.1 503.484 245.6 499.084 245.6ZM402.784 173.3L394.684 164.9H484.684V41.3L493.984 53.3L402.784 173.3Z" fill="#E4E9FF"/>
</mask>
<g mask="url(#mask0_442_2379)">
<path opacity="0.2" d="M94.3258 98.7189C88.4355 101.111 83.0915 104.734 78.3698 108.976C68.0953 118.525 61.6979 131.262 50.6479 140.173C42.542 146.646 31.9948 150.88 21.815 149.024C13.7592 147.581 6.90557 142.712 -0.530149 139.402C-27.2876 127.149 -62.4612 137.638 -78.4325 162.416C-85.0903 172.87 -90.3078 189.245 -87.0919 201.517C-84.4907 211.229 -77.4615 219.693 -68.351 223.904C-56.7331 229.196 -42.5769 227.807 -31.5892 234.42C-20.5155 240.967 -15.3768 253.394 -14.3609 265.866C-13.5194 275.986 -14.5046 286.428 -12.6396 296.44C-10.7747 306.451 -4.9779 316.707 4.63879 319.97C15.8153 323.811 27.7379 317.258 37.8337 311.027C50.5395 303.171 71.4707 283.498 87.0056 283.519C104.875 283.511 114.087 305.053 125.25 315.261C139.966 328.772 167.678 328.949 182.052 314.539C191.714 304.916 195.182 289.494 190.626 276.749C185.265 261.731 170.927 252.071 161.397 239.343C153.658 229.085 149.543 216.549 148.718 203.79C147.825 189.703 153.003 181.788 157.315 169.575C165.463 146.488 151.077 116.552 131.752 103.879C124.2 99.0028 115.368 95.6794 106.3 96.1328C102.091 96.2436 98.0933 97.1567 94.3258 98.7189Z" fill="#778CEB"/>
<path opacity="0.2" d="M409.588 160.865C403.231 160.765 396.896 162.012 390.892 164.071C377.703 168.845 366.837 178.069 353.183 181.953C343.192 184.743 331.829 184.519 323.184 178.832C316.333 174.356 311.927 167.195 306.376 161.243C286.536 139.506 250.06 135.415 225.675 151.981C215.462 159.001 204.26 172.035 202.424 184.588C201.023 194.545 204.185 205.082 210.925 212.519C219.551 221.93 233.124 226.184 240.653 236.566C248.288 246.919 248.161 260.367 244.222 272.243C241.042 281.888 236.054 291.114 233.858 301.059C231.662 311.003 232.99 322.708 240.567 329.47C249.353 337.373 262.889 336.001 274.617 334.211C289.382 331.945 316.337 322.017 330.629 328.107C347.079 335.084 347.14 358.513 353.427 372.271C361.691 390.459 387.13 401.453 405.993 393.806C418.647 388.724 427.866 375.884 428.654 362.372C429.588 346.453 420.166 331.958 416.368 316.518C413.253 304.052 414.365 290.904 418.592 278.837C423.275 265.521 431.134 260.26 439.877 250.703C456.399 232.637 454.857 199.459 442.021 180.242C436.976 172.802 430.145 166.291 421.621 163.165C417.703 161.622 413.667 160.9 409.588 160.865Z" fill="#778CEB"/>
<path opacity="0.2" d="M606.69 -36.1643C600.847 -33.6591 595.573 -29.9335 590.935 -25.6009C580.846 -15.8558 574.695 -2.99765 563.819 6.12487C555.84 12.7523 545.376 17.1897 535.163 15.5304C527.08 14.243 520.134 9.50651 512.636 6.34121C485.647 -5.39441 450.682 5.77158 435.192 30.8533C428.737 41.4331 423.836 57.9056 427.288 70.1135C430.076 79.774 437.267 88.1002 446.458 92.1351C458.175 97.2021 472.302 95.5399 483.415 101.94C494.613 108.272 499.991 120.598 501.247 133.048C502.283 143.15 501.5 153.609 503.558 163.583C505.615 173.557 511.609 183.698 521.287 186.775C532.535 190.4 544.329 183.618 554.303 177.193C566.855 169.094 587.403 149.021 602.935 148.742C620.801 148.39 630.427 169.751 641.785 179.741C656.758 192.966 684.469 192.609 698.562 177.924C708.037 168.116 711.206 152.63 706.406 139.975C700.756 125.064 686.234 115.682 676.461 103.14C668.526 93.0336 664.169 80.5787 663.099 67.8383C661.934 53.7708 666.958 45.7577 671.034 33.4634C678.735 10.2239 663.775 -19.4288 644.209 -31.7265C636.564 -36.4566 627.669 -39.609 618.612 -38.9808C614.406 -38.7888 610.426 -37.7989 606.69 -36.1643Z" fill="#778CEB"/>
</g>
<defs>
<linearGradient id="paint0_linear_442_2379" x1="283" y1="0" x2="283" y2="300" gradientUnits="userSpaceOnUse">
<stop stop-color="#778CEB"/>
<stop offset="0.732366" stop-color="#778CEB" stop-opacity="0"/>
</linearGradient>
</defs>
</svg>
